:FULLY-SPECIFIED
:FORCE-ALL-JOINTS-BE-3DOF
:DEGREES
1019
root 1.14996 15.1619 32.4429 4.86647 -3.56053 3.60246
lfemur 8.48498 0.587229 5.6764
ltibia -3.77115e-14 0 0
lfoot -30.1405 -11.0539 -1.09604e-06
ltoes -34.3277 0 0
rfemur -31.6346 -15.9035 -6.04666
rtibia 50.1598 -0 0
rfoot -22.3989 4.79285 0.00117392
rtoes -42.478 0 0
lowerback -1.42476 -0.152755 0.279041
upperback -0.546936 -0.192774 -5.92459
thorax 0.215178 -0.104201 -6.30299
lowerneck -7.16022 0.946363 6.204
upperneck 1.608 0.580258 3.56354
head 1.72921 0.424519 0.091085
lclavicle 4.8671e-15 4.54502e-15 -1.70167e-30
lhumerus -58.6938 -46.5041 115.422
lradius 55.6336 -0 0
lwrist 25.1812 0 0
lhand 37.2101 24.8282 0.000267804
lfingers 7.12502 -0 0
lthumb 60.0449 38.5607 0.000128673
rclavicle 4.8671e-15 4.54502e-15 -1.70167e-30
rhumerus 2.85686 -23.9025 0.130798
rradius 27.6306 -0 0
rwrist -10.3702 0 0
rhand -30.7598 -43.0185 0.000495199
rfingers 7.12502 -0 0
rthumb -4.05121 -72.9595 0.000474273
1020
root 1.15104 15.1615 32.4464 4.86081 -3.54459 3.58961
lfemur 8.49838 0.570919 5.68854
ltibia -3.54413e-14 0 0
lfoot -30.1462 -11.0535 -1.09604e-06
ltoes -34.3355 0 0
rfemur -31.6127 -15.9207 -6.04765
rtibia 50.1668 -0 0
rfoot -22.3648 4.87349 0.00117392
rtoes -42.3773 0 0
lowerback -1.44278 -0.143344 0.254673
upperback -0.54213 -0.17897 -5.93743
thorax 0.231832 -0.0968928 -6.3025
lowerneck -7.15591 0.936979 6.23382
upperneck 1.61172 0.565143 3.56814
head 1.7296 0.417418 0.0869631
lclavicle 5.96668e-15 8.17718e-15 -1.70167e-30
lhumerus -58.6907 -46.5275 115.411
lradius 55.645 -0 0
lwrist 25.1943 0 0
lhand 37.2276 24.8642 0.000267804
lfingers 7.12502 -0 0
lthumb 60.0599 38.581 0.000128673
rclavicle 5.96668e-15 8.17718e-15 -1.70167e-30
rhumerus 2.8334 -23.8922 0.146073
rradius 27.6118 -0 0
rwrist -10.3111 0 0
rhand -30.7376 -42.9661 0.000495199
rfingers 7.12502 -0 0
rthumb -4.02982 -72.9075 0.000474273
1021
root 1.15212 15.1611 32.45 4.8552 -3.5288 3.57688
lfemur 8.51165 0.554755 5.70057
ltibia -3.31918e-14 0 0
lfoot -30.1517 -11.053 -1.05175e-06
ltoes -34.3433 0 0
rfemur -31.5909 -15.9378 -6.04863
rtibia 50.1738 -0 0
rfoot -22.3309 4.9534 0.00112648
rtoes -42.2775 0 0
lowerback -1.46064 -0.134026 0.230523
upperback -0.537371 -0.16529 -5.95016
thorax 0.248335 -0.0896513 -6.30202
lowerneck -7.15165 0.927679 6.26337
upperneck 1.6154 0.550165 3.57269
head 1.72999 0.410382 0.0828786
lclavicle 7.05628e-15 1.17764e-14 -1.63291e-30
lhumerus -58.6875 -46.5508 115.4
lradius 55.6563 -0 0
lwrist 25.2074 0 0
lhand 37.2449 24.8998 0.000256983
lfingers 7.12502 -0 0
lthumb 60.0747 38.601 0.000123473
rclavicle 7.05628e-15 1.17764e-14 -1.63291e-30
rhumerus 2.81016 -23.8821 0.161203
rradius 27.593 -0 0
rwrist -10.2525 0 0
rhand -30.7157 -42.9141 0.00047519
rfingers 7.12502 -0 0
rthumb -4.00862 -72.8559 0.000455109
1022
root 1.15317 15.1607 32.4535 4.84974 -3.51345 3.56449
lfemur 8.52455 0.539032 5.71226
ltibia -3.10042e-14 0 0
lfoot -30.1572 -11.0526 -9.66395e-07
ltoes -34.3509 0 0
rfemur -31.5698 -15.9544 -6.04958
rtibia 50.1806 -0 0
rfoot -22.298 5.03111 0.00103506
rtoes -42.1805 0 0
lowerback -1.47802 -0.124971 0.207035
upperback -0.532745 -0.151985 -5.96253
thorax 0.264385 -0.0826089 -6.30155
lowerneck -7.14751 0.918632 6.29211
upperneck 1.61897 0.535598 3.57711
head 1.73037 0.403539 0.0789063
lclavicle 8.11594e-15 1.52767e-14 -1.50039e-30
lhumerus -58.6844 -46.5734 115.39
lradius 55.6673 -0 0
lwrist 25.2201 0 0
lhand 37.2618 24.9345 0.000236127
lfingers 7.12502 -0 0
lthumb 60.0891 38.6204 0.000113453
rclavicle 8.11594e-15 1.52767e-14 -1.50039e-30
rhumerus 2.78756 -23.8722 0.175912
rradius 27.5748 -0 0
rwrist -10.1956 0 0
rhand -30.6943 -42.8635 0.000436625
rfingers 7.12502 -0 0
rthumb -3.988 -72.8058 0.000418174
1023
root 1.15416 15.1603 32.4568 4.84453 -3.49882 3.55269
lfemur 8.53684 0.524047 5.7234
ltibia -2.89195e-14 0 0
lfoot -30.1623 -11.0522 -8.46262e-07
ltoes -34.3582 0 0
rfemur -31.5496 -15.9702 -6.0505
rtibia 50.187 -0 0
rfoot -22.2666 5.10516 0.00090639
rtoes -42.088 0 0
lowerback -1.49458 -0.116349 0.184649
upperback -0.52834 -0.139306 -5.97432
thorax 0.279679 -0.0758982 -6.3011
lowerneck -7.14357 0.910009 6.3195
upperneck 1.62238 0.521717 3.58133
head 1.73073 0.397018 0.075121
lclavicle 9.1257e-15 1.86121e-14 -1.31388e-30
lhumerus -58.6815 -46.595 115.38
lradius 55.6778 -0 0
lwrist 25.2322 0 0
lhand 37.2778 24.9675 0.000206774
lfingers 7.12502 -0 0
lthumb 60.1028 38.639 9.93493e-05
rclavicle 9.1257e-15 1.86121e-14 -1.31388e-30
rhumerus 2.76603 -23.8628 0.189923
rradius 27.5575 -0 0
rwrist -10.1413 0 0
rhand -30.674 -42.8154 0.000382347
rfingers 7.12502 -0 0
rthumb -3.96836 -72.758 0.00036619
1024
root 1.15509 15.1599 32.4598 4.83968 -3.48521 3.54171
lfemur 8.54828 0.510097 5.73377
ltibia -2.69791e-14 0 0
lfoot -30.1672 -11.0518 -7.00419e-07
ltoes -34.3649 0 0
rfemur -31.5308 -15.9849 -6.05137
rtibia 50.1931 -0 0
rfoot -22.2374 5.17409 0.000750182
rtoes -42.0019 0 0
lowerback -1.50999 -0.10833 0.163811
upperback -0.524242 -0.127503 -5.98529
thorax 0.293915 -0.0696521 -6.30067
lowerneck -7.13991 0.901981 6.34499
upperneck 1.62555 0.508796 3.58525
head 1.73107 0.390949 0.0715976
lclavicle 1.00656e-14 2.17168e-14 -1.08745e-30
lhumerus -58.6787 -46.615 115.371
lradius 55.6876 -0 0
lwrist 25.2434 0 0
lhand 37.2927 24.9982 0.000171139
lfingers 7.12502 -0 0
lthumb 60.1156 38.6563 8.22276e-05
rclavicle 1.00656e-14 2.17168e-14 -1.08745e-30
rhumerus 2.74599 -23.854 0.20296
rradius 27.5414 -0 0
rwrist -10.0908 0 0
rhand -30.655 -42.7705 0.000316454
rfingers 7.12502 -0 0
rthumb -3.95007 -72.7135 0.000303081
1025
root 1.15593 15.1596 32.4626 4.83529 -3.47289 3.53177
lfemur 8.55862 0.497478 5.74315
ltibia -2.52241e-14 0 0
lfoot -30.1715 -11.0514 -5.40264e-07
ltoes -34.371 0 0
rfemur -31.5138 -15.9983 -6.05215
rtibia 50.1985 -0 0
rfoot -22.211 5.23643 0.000578647
rtoes -41.9241 0 0
lowerback -1.52394 -0.101082 0.144962
upperback -0.520538 -0.116828 -5.99521
thorax 0.30679 -0.064003 -6.30029
lowerneck -7.1366 0.894719 6.36804
upperneck 1.62842 0.49711 3.5888
head 1.73138 0.385459 0.0684109
lclavicle 1.09156e-14 2.45247e-14 -8.38796e-31
lhumerus -58.6763 -46.6332 115.363
lradius 55.6964 -0 0
lwrist 25.2536 0 0
lhand 37.3063 25.026 0.000132007
lfingers 7.12502 -0 0
lthumb 60.1271 38.6719 6.34258e-05
rclavicle 1.09156e-14 2.45247e-14 -8.38796e-31
rhumerus 2.72788 -23.8461 0.214747
rradius 27.5268 -0 0
rwrist -10.0451 0 0
rhand -30.6379 -42.73 0.000244095
rfingers 7.12502 -0 0
rthumb -3.93353 -72.6733 0.00023378
1026
root 1.15666 15.1594 32.465 4.83147 -3.46217 3.52312
lfemur 8.56763 0.486488 5.75131
ltibia -2.36958e-14 0 0
lfoot -30.1753 -11.0511 -3.78937e-07
ltoes -34.3763 0 0
rfemur -31.499 -16.0099 -6.05283
rtibia 50.2032 -0 0
rfoot -22.188 5.29072 0.000405857
rtoes -41.8563 0 0
lowerback -1.53609 -0.0947734 0.128547
upperback -0.517314 -0.107531 -6.00385
thorax 0.318002 -0.0590836 -6.29996
lowerneck -7.13372 0.888394 6.38811
upperneck 1.63092 0.486933 3.59189
head 1.73164 0.380679 0.0656358
lclavicle 1.16559e-14 2.69699e-14 -5.88325e-31
lhumerus -58.6741 -46.649 115.355
lradius 55.7041 -0 0
lwrist 25.2625 0 0
lhand 37.318 25.0502 9.25884e-05
lfingers 7.12502 -0 0
lthumb 60.1372 38.6855 4.44863e-05
rclavicle 1.16559e-14 2.69699e-14 -5.88325e-31
rhumerus 2.7121 -23.8392 0.22501
rradius 27.514 -0 0
rwrist -10.0053 0 0
rhand -30.623 -42.6946 0.000171206
rfingers 7.12502 -0 0
rthumb -3.91913 -72.6383 0.000163971
